# xmcd CD database file
#
# Track frame offsets:
#	150
#	14662
#	27532
#	40090
#	55217
#	68457
#	82095
#	97122
#	111452
#	126052
#	139777
#	152945
#	165355
#	178582
#	192092
#	205075
#
# Disc length: 2909 seconds
#
# Revision: 3
# Processed by: cddbd v1.5.2PL0 Copyright (c) Steve Scherf et al.
# Submitted via: CDex 1.51
#
DISCID=dd0b5b10
DTITLE=Grupo Ramirez - A Lo Loco
DYEAR=2008
DGENRE=Merengue
TTITLE0=A Lo Loco
TTITLE1=Despedida
TTITLE2=Ganas
TTITLE3=Rosalbita
TTITLE4=Arroyito Cristalino
TTITLE5=La Tosferina
TTITLE6=El Venao
TTITLE7=Maye
TTITLE8=EI Mojeral
TTITLE9=Jovinita
TTITLE10=No lego
TTITLE11=El Rey
TTITLE12=Que No Vuelva Mas
TTITLE13=A Dada Las Gradas
TTITLE14=Los Agricultores
TTITLE15=1
EXTD=YEAR: 2008
EXTT0=
EXTT1=
EXTT2=
EXTT3=
EXTT4=
EXTT5=
EXTT6=
EXTT7=
EXTT8=
EXTT9=
EXTT10=
EXTT11=
EXTT12=
EXTT13=
EXTT14=
EXTT15=
PLAYORDER=
